<?xml version="1.0" standalone="no"?>
<!DOCTYPE svg PUBLIC "-//W3C//DTD SVG 20010904//EN"
 "http://www.w3.org/TR/2001/REC-SVG-20010904/DTD/svg10.dtd">
<svg version="1.0" xmlns="http://www.w3.org/2000/svg"
 width="80.000000pt" height="80.000000pt" viewBox="0 0 80.000000 80.000000"
 preserveAspectRatio="xMidYMid meet">

<g transform="translate(0.000000,80.000000) scale(0.100000,-0.100000)" stroke="none">
<path d="M264 535 c-109 -24 -184 -77 -184 -130 0 -55 75 -107 189 -131 206
-43 451 28 451 131 0 104 -250 175 -456 130z m209 -36 c91 -47 91 -131 0 -178
-12 -6 -45 -11 -73 -11 -144 0 -193 123 -75 188 26 15 120 15 148 1z"/>
<path d="M352 457 c-28 -30 -28 -68 1 -95 30 -28 68 -28 95 1 28 30 28 68 -1
95 -30 28 -68 28 -95 -1z"/>
</g>
</svg>
