
<svg version="1.0" xmlns="http://www.w3.org/2000/svg"
 width="120.000000pt" height="258.000000pt" viewBox="0 0 120.000000 258.000000"
 preserveAspectRatio="xMidYMid meet">

<g transform="translate(0.000000,258.000000) scale(0.100000,-0.100000)" stroke="none">
<path d="M569 2533 c-18 -27 -81 -106 -138 -178 -310 -387 -444 -719 -428
-1065 15 -328 149 -613 412 -877 l122 -121 13 -147 13 -146 41 3 41 3 15 145
15 145 106 105 c210 207 335 418 395 665 20 85 24 124 24 268 0 240 -28 361
-135 585 -68 142 -152 269 -287 438 -58 72 -120 152 -137 178 -18 25 -33 46
-35 46 -1 0 -18 -21 -37 -47z m71 -1538 c26 -564 27 -601 11 -624 -32 -46 -48
-49 -80 -16 l-29 30 28 620 c16 341 30 634 31 650 4 54 10 -45 39 -660z"/>
</g>
</svg>
